<svg width="23" height="24" viewBox="0 0 23 24" fill="none" xmlns="http://www.w3.org/2000/svg">
<path d="M20.788 4.61233C21.7739 5.79533 22.2657 7.1755 22.2657 8.75283C22.2657 14.4696 19.0135 16.1455 15.9575 16.6384C16.3518 17.3285 16.4504 18.1172 16.4504 18.9058V22.9467C16.4504 23.4396 16.1546 23.7353 15.7603 23.7353C15.6563 23.7368 15.5531 23.7174 15.4568 23.6783C15.3604 23.6391 15.2729 23.5811 15.1994 23.5076C15.1258 23.4341 15.0678 23.3465 15.0287 23.2502C14.9896 23.1538 14.9702 23.0506 14.9716 22.9467V18.9058C15.0235 18.4927 14.9794 18.0731 14.8426 17.6798C14.7058 17.2866 14.4801 16.9302 14.183 16.6384L14.6759 15.3568C17.732 14.9625 20.8866 13.9767 20.8866 8.65425C20.8866 7.37266 20.3937 6.18966 19.5065 5.20383L19.3093 4.41625C19.6842 3.47163 19.7187 2.426 19.4068 1.45875C18.915 1.55625 17.9291 1.7545 16.2543 2.9375L15.6617 3.035C13.3334 2.44378 10.8942 2.44378 8.56588 3.035L7.97329 2.9375C6.20096 1.85308 5.21512 1.55733 4.72112 1.55733C4.42537 2.54316 4.42537 3.6265 4.81862 4.51483L4.62254 5.30241C3.63671 6.28825 3.14379 7.56983 3.14379 8.75283C3.14379 13.9767 6.10129 15.0611 9.35346 15.4554L9.74779 16.737C9.15629 17.3285 8.86054 18.1172 8.95912 18.9058V23.0452C8.96058 23.1492 8.94118 23.2524 8.90206 23.3488C8.86294 23.4451 8.80491 23.5326 8.73138 23.6062C8.65785 23.6797 8.57033 23.7377 8.47398 23.7768C8.37764 23.816 8.27443 23.8354 8.17046 23.8339C8.06648 23.8354 7.96328 23.816 7.86693 23.7768C7.77059 23.7377 7.68306 23.6797 7.60954 23.6062C7.53601 23.5326 7.47797 23.4451 7.43885 23.3488C7.39974 23.2524 7.38033 23.1492 7.38179 23.0452V20.7789C4.12962 21.469 2.84804 19.7931 1.86221 18.5126C1.36929 17.9211 0.974958 17.4282 0.482041 17.3296C0.384541 17.231 0.0877076 16.8367 0.186291 16.4423C0.284874 16.048 0.679208 15.7522 1.07462 15.9494C2.06046 16.1466 2.65087 16.9352 3.24129 17.6253C4.12962 18.8083 5.01687 19.8917 7.67754 19.3012V18.9069C7.58004 18.1182 7.77612 17.3296 8.17046 16.6395C5.21296 16.048 1.76362 14.3721 1.76362 8.75391C1.76362 7.17658 2.25654 5.79641 3.24237 4.61341C2.94662 3.23433 3.04521 1.75558 3.53812 0.572579L4.03104 0.178246C4.22821 0.0796625 5.60837 -0.216087 8.46512 1.55733C10.8272 0.965909 13.2986 0.965909 15.6606 1.55733C18.422 -0.315754 19.9008 -0.0210875 20.098 0.0785792L20.5909 0.472912C21.0838 1.85308 21.1824 3.23325 20.788 4.61233Z" fill="#A4AFCE"/>
</svg>
