<svg width="23" height="24" viewBox="0 0 23 24" fill="none" xmlns="http://www.w3.org/2000/svg">
<path fill-rule="evenodd" clip-rule="evenodd" d="M3.01829 0.833984C2.21779 0.833984 1.45008 1.15198 0.884038 1.71802C0.317998 2.28406 0 3.05178 0 3.85228C0 4.65278 0.317998 5.42049 0.884038 5.98653C1.45008 6.55257 2.21779 6.87057 3.01829 6.87057C3.81879 6.87057 4.58651 6.55257 5.15255 5.98653C5.71859 5.42049 6.03659 4.65278 6.03659 3.85228C6.03659 3.05178 5.71859 2.28406 5.15255 1.71802C4.58651 1.15198 3.81879 0.833984 3.01829 0.833984ZM1.64634 3.85228C1.64634 3.48841 1.79089 3.13945 2.04818 2.88216C2.30547 2.62487 2.65443 2.48033 3.01829 2.48033C3.38216 2.48033 3.73112 2.62487 3.98841 2.88216C4.2457 3.13945 4.39024 3.48841 4.39024 3.85228C4.39024 4.21614 4.2457 4.5651 3.98841 4.82239C3.73112 5.07968 3.38216 5.22423 3.01829 5.22423C2.65443 5.22423 2.30547 5.07968 2.04818 4.82239C1.79089 4.5651 1.64634 4.21614 1.64634 3.85228ZM0 8.24252C0 8.0242 0.0867266 7.81483 0.241101 7.66045C0.395475 7.50608 0.604852 7.41935 0.823171 7.41935H5.21341C5.43173 7.41935 5.64111 7.50608 5.79548 7.66045C5.94986 7.81483 6.03659 8.0242 6.03659 8.24252V22.5108C6.03659 22.7291 5.94986 22.9385 5.79548 23.0929C5.64111 23.2473 5.43173 23.334 5.21341 23.334H0.823171C0.604852 23.334 0.395475 23.2473 0.241101 23.0929C0.0867266 22.9385 0 22.7291 0 22.5108V8.24252ZM1.64634 9.06569V21.6876H4.39024V9.06569H1.64634ZM7.68293 8.24252C7.68293 8.0242 7.76965 7.81483 7.92403 7.66045C8.0784 7.50608 8.28778 7.41935 8.5061 7.41935H12.8963C13.1147 7.41935 13.324 7.50608 13.4784 7.66045C13.6328 7.81483 13.7195 8.0242 13.7195 8.24252V8.71886L14.197 8.51362C15.0201 8.16182 15.8935 7.94146 16.785 7.86057C19.8307 7.58398 22.5 9.97667 22.5 13.0498V22.5108C22.5 22.7291 22.4133 22.9385 22.2589 23.0929C22.1045 23.2473 21.8951 23.334 21.6768 23.334H17.2866C17.0683 23.334 16.8589 23.2473 16.7045 23.0929C16.5501 22.9385 16.4634 22.7291 16.4634 22.5108V14.8279C16.4634 14.464 16.3189 14.1151 16.0616 13.8578C15.8043 13.6005 15.4553 13.4559 15.0915 13.4559C14.7276 13.4559 14.3786 13.6005 14.1213 13.8578C13.8641 14.1151 13.7195 14.464 13.7195 14.8279V22.5108C13.7195 22.7291 13.6328 22.9385 13.4784 23.0929C13.324 23.2473 13.1147 23.334 12.8963 23.334H8.5061C8.28778 23.334 8.0784 23.2473 7.92403 23.0929C7.76965 22.9385 7.68293 22.7291 7.68293 22.5108V8.24252ZM9.32927 9.06569V21.6876H12.0732V14.8279C12.0732 14.0274 12.3912 13.2597 12.9572 12.6936C13.5232 12.1276 14.291 11.8096 15.0915 11.8096C15.892 11.8096 16.6597 12.1276 17.2257 12.6936C17.7918 13.2597 18.1098 14.0274 18.1098 14.8279V21.6876H20.8537V13.0498C20.8537 10.9601 19.0306 9.30935 16.9354 9.50033C16.2156 9.56581 15.5104 9.74358 14.8456 10.0272L13.2212 10.7241C13.0959 10.7779 12.9592 10.7998 12.8234 10.7877C12.6876 10.7756 12.5569 10.73 12.4431 10.6549C12.3292 10.5798 12.2359 10.4776 12.1713 10.3575C12.1067 10.2374 12.073 10.1031 12.0732 9.96679V9.06569H9.32927Z" fill="#A4AFCE"/>
</svg>
